<svg xmlns="http://www.w3.org/2000/svg" xmlns:xlink="http://www.w3.org/1999/xlink" viewBox="0 0 435.3 301"><defs><style>.cls-5{fill:#1b1464}.cls-8{fill:#e24e44}.cls-9{fill:#545454}.cls-12{fill:#22b473}.cls-13{fill:#e5d573}.cls-18{fill:#fffff3}.cls-21{fill:#675876}.cls-25{opacity:.7}.cls-26{fill:#fff}.cls-27{fill:#ffe3a4}</style><linearGradient id="Degradado_sin_nombre_307" x1="328.73" y1="347.03" x2="119.55" y2="-15.28" gradientUnits="userSpaceOnUse"><stop offset="0" stop-color="#213c66"/><stop offset="1" stop-color="#326066"/></linearGradient><clipPath id="clip-path"><rect x="20.83" y="20.83" width="386.78" height="270.25" rx="12.39" ry="12.39" fill="none"/></clipPath><linearGradient id="Degradado_sin_nombre_15" x1="194.63" y1="296.29" x2="33.5" y2="17.21" gradientUnits="userSpaceOnUse"><stop offset="0" stop-color="#5ec0b6"/><stop offset="1" stop-color="#4ede7d"/></linearGradient><linearGradient id="Degradado_sin_nombre_150" x1="308.24" y1="134.81" x2="232.86" y2="187.32" gradientUnits="userSpaceOnUse"><stop offset="0" stop-color="gray"/><stop offset=".39" stop-color="#7e7e7e"/><stop offset=".62" stop-color="#757575"/><stop offset=".8" stop-color="#676767"/><stop offset=".96" stop-color="#545454"/><stop offset="1" stop-color="#4d4d4d"/></linearGradient><linearGradient id="Degradado_sin_nombre_8" x1="405.57" y1="176.01" x2="327.41" y2="27.73" gradientTransform="rotate(35.3 362.969 95.203)" gradientUnits="userSpaceOnUse"><stop offset="0" stop-color="#53bbd6"/><stop offset=".21" stop-color="#53b8d6"/><stop offset=".39" stop-color="#53add6"/><stop offset=".55" stop-color="#539cd6"/><stop offset=".7" stop-color="#5384d6"/><stop offset=".85" stop-color="#5365d6"/><stop offset=".99" stop-color="#533fd6"/><stop offset="1" stop-color="#533cd6"/></linearGradient><linearGradient id="Degradado_sin_nombre_185" x1="102.89" y1="78.79" x2="35.26" y2="-11.46" gradientUnits="userSpaceOnUse"><stop offset="0" stop-color="#7793e7"/><stop offset=".43" stop-color="#7a96e6"/><stop offset=".74" stop-color="#829fe1"/><stop offset="1" stop-color="#8faed9"/></linearGradient><linearGradient id="Degradado_sin_nombre_185-2" x1="207.83" y1="12.63" x2="197.82" y2="-.72" xlink:href="#Degradado_sin_nombre_185"/><linearGradient id="Degradado_sin_nombre_185-3" x1="10.96" y1="159.92" x2=".96" y2="146.56" xlink:href="#Degradado_sin_nombre_185"/><linearGradient id="Degradado_sin_nombre_185-4" x1="22.74" y1="6" x2="32.74" y2="6" xlink:href="#Degradado_sin_nombre_185"/><linearGradient id="Degradado_sin_nombre_185-5" x1=".74" y1="29" x2="10.74" y2="29" xlink:href="#Degradado_sin_nombre_185"/></defs><g id="Capa_2" data-name="Capa 2"><g id="Capa_1-2" data-name="Capa 1"><rect x="30.75" y="30.75" width="386.78" height="270.25" rx="12.39" ry="12.39" fill="url(#Degradado_sin_nombre_307)"/><g opacity=".1" clip-path="url(#clip-path)"><path class="cls-5" d="M274.9 101a.89.89 0 0 0-.36-1.6 62.93 62.93 0 0 1-11.18-3.12 36.47 36.47 0 0 1-11.85-7.13c-14-13.11-28.16-12.77-30.14-12.44s-31.25 2.79-25.31 14c3.68 6.95 18.81 24.33 28.62 39 2 2.94 3.74 5.78 5.14 8.39a.89.89 0 0 0 1.41.22A493.57 493.57 0 0 1 274.9 101zM347 249.19c.92-1.78 5.59-15.17-2.59-32.5a36.47 36.47 0 0 1-3.15-13.47 62.93 62.93 0 0 1 .46-11.59.89.89 0 0 0-1.41-.84 493.57 493.57 0 0 1-48.88 30.11.89.89 0 0 0-.22 1.41c2.05 2.14 4.21 4.68 6.4 7.47 10.91 13.83 22.82 33.55 28.3 39.19 8.85 9.1 20.17-17.97 21.09-19.78zm14.54-51.63l.79-.61-.8.59z"/><path class="cls-5" d="M378.7 159.88a13.2 13.2 0 0 1 2.58 7.4q-3.56 3.28-7.36 6.56a2.69 2.69 0 0 0-.67 3.22l2.09 4.26a2.69 2.69 0 0 0 4.25.78c10.21-9.45 19.72-19.24 26.1-26a9.53 9.53 0 0 0 1.62-10.73 2.68 2.68 0 0 0-4.47-.54 223.64 223.64 0 0 1-15.71 16.92 12.68 12.68 0 0 0-2.68-7.44c25.31-25.38 44-55.48 39.23-86.86a10.68 10.68 0 0 0-1.93-4.67 10.68 10.68 0 0 0-3.86-3.27c-28.39-14.2-62.78-5.62-94.71 10.68a12.68 12.68 0 0 0-6.26-4.83 223.64 223.64 0 0 1 20.92-9.76 2.68 2.68 0 0 0 .85-4.42A9.53 9.53 0 0 0 328 49.4c-8.4 4-20.64 10-32.77 16.86a2.69 2.69 0 0 0-.56 4.29l3.41 3.29a2.69 2.69 0 0 0 3.27.35q4.29-2.62 8.5-5a13.2 13.2 0 0 1 6.25 4.72c-42.91 23.64-80.08 59.52-90.15 69.63a4.48 4.48 0 0 0-.45 5.8l3.05 4.19a2.7 2.7 0 0 0-4.59.38c-8.73 17.36-8 29.53-8 29.53l6.41 8.8S190 180.46 182 237.36c56.62 9.82 55.31-24.57 55.31-24.57l6.41 8.8s11.35 4.41 30.56 1.41a2.7 2.7 0 0 0 1.77-4.25l3.05 4.25a4.48 4.48 0 0 0 .5.57 4.49 4.49 0 0 0 5.12.75c12.75-6.49 58.28-30.86 93.98-64.44z"/></g><rect x="20.83" y="20.83" width="386.78" height="270.25" rx="12.39" ry="12.39" stroke-width="2" stroke-miterlimit="10" stroke="#6f79dd" fill="none"/><path d="M32.29 19.83h169.78V292H32.29a12.45 12.45 0 0 1-12.45-12.45V32.29a12.45 12.45 0 0 1 12.45-12.46z" fill="url(#Degradado_sin_nombre_15)"/><path class="cls-8" d="M205.22 64.83c3.55 6.92 18.27 24.31 27.78 38.9 1.92 2.94 3.62 5.76 5 8.36a.88.88 0 0 0 1.39.24A488.08 488.08 0 0 1 283 76a.88.88 0 0 0-.34-1.58 62.23 62.23 0 0 1-11-3.23 36.06 36.06 0 0 1-11.6-7.19c-13.65-13.15-27.67-13-29.63-12.7s-30.94 2.37-25.21 13.53z"/><path class="cls-9" d="M394.15 135.27s4.82 5.28 2.53 11.25-5.28 4.82-5.28 4.82 1.18-10.61-6.75-12.6zm-58.37-82.44s-3.38-6.3-9.77-6.12-6.3 3.38-6.3 3.38 10.4 2.41 9.65 10.55z"/><path class="cls-8" d="M350.87 33.42a2.65 2.65 0 0 1-.9 4.36 245.38 245.38 0 0 0-36.33 17.92 2.66 2.66 0 0 1-3.23-.39L307.08 52a2.66 2.66 0 0 1 .61-4.23c12.08-6.58 24.26-12.4 32.62-16.23a9.43 9.43 0 0 1 10.56 1.88z"/><path d="M429.06 42.72c-67.94-35.12-172.85 62.94-190.9 80.59a4.43 4.43 0 0 0-.52 5.73l26 36.74 26 36.74a4.43 4.43 0 0 0 5.58 1.41c22.64-11.16 150-77.54 139.43-153.29a10.59 10.59 0 0 0-5.59-7.92z" fill="#eaeadc"/><path d="M257.86 169.88l-23.05-32.56a2.67 2.67 0 0 0-4.54.32c-8.86 17.05-8.32 29.09-8.32 29.09l13.48 19 13.48 19s11.18 4.51 30.2 1.82a2.67 2.67 0 0 0 1.81-4.18z" fill="url(#Degradado_sin_nombre_150)"/><path class="cls-9" d="M258.79 207a42.87 42.87 0 0 1-9.88-2.17l-27-38.07a42.85 42.85 0 0 1 1.23-10l17.38 24.55z"/><path class="cls-8" d="M339.46 254.43c-5.34-5.65-16.85-25.31-27.46-39.13-2.13-2.78-4.23-5.33-6.23-7.47a.88.88 0 0 1 .24-1.39 488.08 488.08 0 0 0 48.73-29.13.88.88 0 0 1 1.38.84 62.23 62.23 0 0 0-.61 11.46 36.06 36.06 0 0 0 2.92 13.39c7.86 17.25 3.07 30.42 2.13 32.17s-12.48 28.37-21.1 19.26zm76.26-116.36c-6.39 6.61-15.93 16.17-26.15 25.38a2.66 2.66 0 0 1-4.19-.83l-2-4.24a2.66 2.66 0 0 1 .7-3.18 245.38 245.38 0 0 0 29-28.31 2.65 2.65 0 0 1 4.42.6 9.43 9.43 0 0 1-1.78 10.58z"/><path class="cls-12" d="M371.52 178.49l.8-.58z"/><path class="cls-13" d="M237.62 199.6l-7.26-10.25-7.26-10.25s-31.81-12.1-40.5 44.06c55.86 10.46 55.02-23.56 55.02-23.56z"/><path d="M234.06 194.57l-3.7-5.22-3.7-5.22s-18-4.88-22.44 23.72c28.46 5.33 29.84-13.28 29.84-13.28z" fill="#dd9e5f"/><path class="cls-12" d="M295.24 203.94a4.44 4.44 0 0 1-5.58-1.42l-26-36.74L432.83 46a10.56 10.56 0 0 1 1.85 4.65c10.55 75.74-116.79 142.12-139.44 153.29z"/><path d="M295.24 203.94a4.44 4.44 0 0 1-5.58-1.42l-26-36.74L432.83 46a10.56 10.56 0 0 1 1.85 4.65c10.55 75.74-116.79 142.12-139.44 153.29z" fill="#d8d7ca"/><circle class="cls-8" cx="362.98" cy="95.21" r="24.79" transform="rotate(-35.3 362.97 95.208)"/><circle cx="362.98" cy="95.21" r="18.59" transform="rotate(-35.3 362.97 95.208)" fill="url(#Degradado_sin_nombre_8)"/><path d="M362.82 82.38a13.41 13.41 0 0 0-8.8 3.28" stroke="#fff" stroke-linecap="round" stroke-width="3" stroke-miterlimit="10" fill="none"/><rect class="cls-18" x="305.16" y="77.81" width="36.03" height="2.6" rx="1.3" ry="1.3" transform="rotate(-34.3 323.183 79.113)"/><rect class="cls-18" x="339.46" y="60.55" width="18.01" height="2.6" rx="1.3" ry="1.3" transform="rotate(-33.9 351.446 60.707)"/><rect class="cls-18" x="299.83" y="91.69" width="6" height="2.6" rx="1.3" ry="1.3" transform="rotate(-34.3 302.845 92.978)"/><rect class="cls-18" x="259.16" y="119.43" width="6" height="2.6" rx="1.3" ry="1.3" transform="rotate(-34.3 262.159 120.74)"/><rect class="cls-18" x="358.37" y="51.76" width="6" height="2.6" rx="1.3" ry="1.3" transform="rotate(145.7 361.368 53.053)"/><rect class="cls-18" x="322.5" y="63.46" width="18.01" height="2.6" rx="1.3" ry="1.3" transform="rotate(-34.3 331.518 64.756)"/><rect class="cls-18" x="315.61" y="72.25" width="6" height="2.6" rx="1.3" ry="1.3" transform="rotate(-34.3 318.618 73.551)"/><rect class="cls-18" x="274.96" y="99.98" width="6" height="2.6" rx="1.3" ry="1.3" transform="rotate(-34.3 277.979 101.275)"/><rect class="cls-18" x="341.4" y="54.66" width="6" height="2.6" rx="1.3" ry="1.3" transform="rotate(145.7 344.405 55.956)"/><circle cx="64.84" cy="76" r="16.74" fill="#445191"/><path d="M78.17 86.49a16.42 16.42 0 0 1-26 0 2.52 2.52 0 0 1 .32-.39c.85-.85 8.14-4.52 8.14-4.52h9s7.37 3.67 8.22 4.52a2.52 2.52 0 0 1 .32.39z" fill="#e59e57" id="T-Shirt"/><path class="cls-21" d="M68.81 80.34h-7.24l-.9.9a5.12 5.12 0 0 0 9 0z" id="Shirt"/><path d="M68.17 77.86h-6l-1 3c0 .55 2.43 2 3 2h2c.55 0 3-1.44 3-2z" fill="#ba9e86" id="Neck"/><path d="M65.19 65.84c-3.49 0-6.33 1.71-6.33 5.12a11.84 11.84 0 0 0 1.81 6c.9 1.71 2.75 3.42 4.52 3.42s3.62-1.71 4.52-3.42a11.84 11.84 0 0 0 1.81-6c0-3.41-2.84-5.12-6.33-5.12z" fill="#efc8a8" id="Head"/><path d="M65.19 65c-2.12 0-4.52.74-4.52 1.71-1.34 0-1.81 2.82-1.81 5.12A8.83 8.83 0 0 0 59 73c.23-1.13 0-2.9 1.72-2.9s1.07.12 3.62.85c2.23.64 4.12-.26 3.62-1.71-.36-1.05 3.62.71 3.62 2.56-.06-3.34-.64-6.8-6.39-6.8z" fill="#af7f4a" id="Hair"/><path class="cls-21" d="M65.27 78.65a3.47 3.47 0 0 1-2.19-.93.24.24 0 0 1 .34-.34 2.42 2.42 0 0 0 3.52 0 .24.24 0 0 1 .34.34 2.81 2.81 0 0 1-2.01.93z"/><g class="cls-25"><rect class="cls-26" x="93.98" y="70.42" width="80.58" height="2.48" rx="1.24" ry="1.24"/><rect class="cls-26" x="93.98" y="79.1" width="80.58" height="2.48" rx="1.24" ry="1.24"/></g><rect class="cls-13" x="49.35" y="231.58" width="125.21" height="19.83" rx="9.77" ry="9.77"/><path class="cls-27" d="M174.36 198.7a.52.52 0 0 0-.4-.35l-2.54-.48-1.25-2.22a.52.52 0 0 0-.9 0l-1.27 2.22-2.54.48a.52.52 0 0 0-.4.35.51.51 0 0 0 .12.51l1.77 1.84-.32 2.51a.51.51 0 0 0 .21.48.52.52 0 0 0 .31.1.52.52 0 0 0 .22 0l2.35-1.08 2.34 1.08a.52.52 0 0 0 .22 0 .52.52 0 0 0 .31-.1.51.51 0 0 0 .21-.48l-.32-2.51 1.77-1.84a.51.51 0 0 0 .11-.51z" id="Star"/><path class="cls-27" d="M159.78 198.7a.52.52 0 0 0-.4-.35l-2.54-.48-1.25-2.22a.52.52 0 0 0-.9 0l-1.25 2.22-2.54.48a.52.52 0 0 0-.4.35.51.51 0 0 0 .12.51l1.77 1.84-.32 2.51a.51.51 0 0 0 .21.48.52.52 0 0 0 .31.1.52.52 0 0 0 .22 0l2.35-1.08 2.34 1.08a.52.52 0 0 0 .22 0 .52.52 0 0 0 .31-.1.51.51 0 0 0 .21-.48l-.32-2.51 1.77-1.84a.51.51 0 0 0 .09-.51z" id="Star-2" data-name="Star"/><path class="cls-27" d="M145.2 198.7a.52.52 0 0 0-.4-.35l-2.54-.48-1.26-2.21a.52.52 0 0 0-.9 0l-1.25 2.22-2.54.48a.52.52 0 0 0-.4.35.51.51 0 0 0 .12.51l1.77 1.84-.32 2.51a.51.51 0 0 0 .21.48.52.52 0 0 0 .31.1.52.52 0 0 0 .22 0l2.35-1.08 2.34 1.08a.52.52 0 0 0 .22 0 .52.52 0 0 0 .31-.1.51.51 0 0 0 .21-.48l-.32-2.51 1.77-1.84a.51.51 0 0 0 .1-.52z" id="Star-3" data-name="Star"/><path class="cls-27" d="M130.63 198.7a.52.52 0 0 0-.4-.35l-2.54-.48-1.25-2.22a.52.52 0 0 0-.9 0l-1.25 2.22-2.54.48a.52.52 0 0 0-.4.35.51.51 0 0 0 .12.51l1.77 1.84-.32 2.51a.51.51 0 0 0 .21.48.52.52 0 0 0 .31.1.52.52 0 0 0 .22 0L126 203l2.34 1.08a.52.52 0 0 0 .22 0 .52.52 0 0 0 .31-.1.51.51 0 0 0 .21-.48l-.32-2.51 1.77-1.84a.51.51 0 0 0 .1-.45z" id="Star-4" data-name="Star"/><path class="cls-27" d="M116 198.7a.52.52 0 0 0-.4-.35l-2.54-.48-1.25-2.22a.52.52 0 0 0-.9 0l-1.25 2.22-2.54.48a.51.51 0 0 0-.28.86l1.77 1.84-.32 2.51a.51.51 0 0 0 .21.48.52.52 0 0 0 .31.1.52.52 0 0 0 .22 0l2.35-1.08 2.34 1.08a.52.52 0 0 0 .73-.53l-.32-2.51 1.77-1.84a.51.51 0 0 0 .1-.56z" id="Star-5" data-name="Star"/><g class="cls-25"><rect class="cls-26" x="49.35" y="118.77" width="125.21" height="2.48" rx="1.24" ry="1.24"/><rect class="cls-26" x="48.11" y="131.17" width="44.63" height="2.48" rx="1.24" ry="1.24"/><rect class="cls-26" x="48.11" y="142.32" width="44.63" height="2.48" rx="1.24" ry="1.24"/><rect class="cls-26" x="48.11" y="153.48" width="44.63" height="2.48" rx="1.24" ry="1.24"/><rect class="cls-26" x="48.11" y="165.88" width="44.63" height="2.48" rx="1.24" ry="1.24"/></g><path d="M134.18 160l9.53 9.42 18.59-18.29a3.16 3.16 0 0 1 4.55 0l7.71 7.62V136a4.85 4.85 0 0 0-4.83-4.83H111.2a4.85 4.85 0 0 0-4.83 4.83v44.88a4.85 4.85 0 0 0 4.83 4.83h58.52a4.85 4.85 0 0 0 4.83-4.83v-17.71c-.08-.08-.24-.16-.32-.24l-9.66-9.55-27.44 27a1.58 1.58 0 0 1-2.27 0 1.54 1.54 0 0 1 0-2.25l6.57-6.5-9.5-9.39-7.93 7.9a1.59 1.59 0 0 1-1.9.3 1.57 1.57 0 0 1-.38-2.54l8-7.89a3.21 3.21 0 0 1 4.46-.01zm-13.83 13.77l-1.61 1.61a1.56 1.56 0 0 1-2.25 0 1.56 1.56 0 0 1 0-2.25l1.61-1.61a1.59 1.59 0 1 1 2.25 2.25zm.89-20.45a8.05 8.05 0 1 1 8.05-8.05 8.08 8.08 0 0 1-8.05 8.05z" fill="#fff" opacity=".7"/><path d="M6 148.52v-131A11.59 11.59 0 0 1 17.55 6l180.55.48" stroke="url(#Degradado_sin_nombre_185)" stroke-width="2" stroke-miterlimit="10" fill="none"/><path stroke="url(#Degradado_sin_nombre_185-2)" stroke-width="2" stroke-miterlimit="10" fill="none" d="M197.87 1h9.92v9.92h-9.92z"/><path stroke="url(#Degradado_sin_nombre_185-3)" stroke-width="2" stroke-miterlimit="10" fill="none" d="M1 148.28h9.92v9.92H1z"/><circle cx="27.74" cy="6" r="4" stroke="url(#Degradado_sin_nombre_185-4)" stroke-width="2" stroke-miterlimit="10" fill="none"/><circle cx="5.74" cy="29" r="4" stroke="url(#Degradado_sin_nombre_185-5)" stroke-width="2" stroke-miterlimit="10" fill="none"/><path d="M92 246.35a4.41 4.41 0 0 1-.55.1 5.84 5.84 0 0 1-.74 0 3.35 3.35 0 0 1-.65-.06 1.16 1.16 0 0 1-.47-.2.87.87 0 0 1-.29-.4 2 2 0 0 1-.1-.67v-2.5h-3.06v3.68a4.41 4.41 0 0 1-.55.1 5.84 5.84 0 0 1-.74 0 3.35 3.35 0 0 1-.65-.06 1.17 1.17 0 0 1-.47-.2.87.87 0 0 1-.29-.4 1.94 1.94 0 0 1-.1-.67v-8.45l.56-.09a5.13 5.13 0 0 1 .74-.06 3.35 3.35 0 0 1 .65.06 1.17 1.17 0 0 1 .47.2.86.86 0 0 1 .29.4 2 2 0 0 1 .1.67v2.56h3.07v-3.74l.56-.09a5.13 5.13 0 0 1 .74-.06 3.35 3.35 0 0 1 .65.06 1.17 1.17 0 0 1 .47.2.87.87 0 0 1 .29.4 2 2 0 0 1 .1.67zm4.89 0a4.41 4.41 0 0 1-.55.1 5.84 5.84 0 0 1-.74 0 3.35 3.35 0 0 1-.65-.06 1.17 1.17 0 0 1-.47-.2.87.87 0 0 1-.29-.4 1.94 1.94 0 0 1-.1-.67v-8.45l.56-.09a5.13 5.13 0 0 1 .74-.06 3.35 3.35 0 0 1 .65.06 1.17 1.17 0 0 1 .47.2.86.86 0 0 1 .29.4 2 2 0 0 1 .1.67zm4.87-3.07v3.07a4.44 4.44 0 0 1-.55.1 5.83 5.83 0 0 1-.74 0 3.35 3.35 0 0 1-.65-.06 1.1 1.1 0 0 1-.46-.2.89.89 0 0 1-.28-.4 1.94 1.94 0 0 1-.1-.67v-7.54a.7.7 0 0 1 .18-.52 1.3 1.3 0 0 1 .5-.3 6 6 0 0 1 1.26-.28 12.69 12.69 0 0 1 1.54-.09 5.12 5.12 0 0 1 3.33.93 3.09 3.09 0 0 1 1.12 2.51 2.8 2.8 0 0 1-.51 1.7 3.67 3.67 0 0 1-1.22 1.09q.58.78 1.14 1.47a9.56 9.56 0 0 1 .88 1.25 1.51 1.51 0 0 1-.58.86 1.63 1.63 0 0 1-1 .3 2 2 0 0 1-.61-.08 1.46 1.46 0 0 1-.45-.22 1.85 1.85 0 0 1-.35-.35 4.65 4.65 0 0 1-.3-.45l-1.34-2.16zm1-2.13a1.4 1.4 0 0 0 1-.31 1.17 1.17 0 0 0 .35-.92 1.11 1.11 0 0 0-.39-.92 2 2 0 0 0-1.24-.31h-.7v2.4zm5.96-2.94a1.38 1.38 0 0 1 1.49-1.49h5.28a2 2 0 0 1 .2.46 2.08 2.08 0 0 1 .09.61 1.17 1.17 0 0 1-.26.86 1 1 0 0 1-.7.26h-3.38v1.49H115a1.93 1.93 0 0 1 .2.46 2 2 0 0 1 .09.6 1.2 1.2 0 0 1-.26.86.93.93 0 0 1-.69.26h-2.94v1.68h4.11a1.94 1.94 0 0 1 .2.46 2.08 2.08 0 0 1 .09.61 1.2 1.2 0 0 1-.26.87.94.94 0 0 1-.7.26h-4.67a1.38 1.38 0 0 1-1.49-1.49zm18.67 5.79a1.55 1.55 0 0 1-.54.28 2.52 2.52 0 0 1-.76.1 2.7 2.7 0 0 1-1-.14.77.77 0 0 1-.49-.5q-.45-1.41-.74-2.28t-.45-1.53h-.08q0 .94-.07 1.72v3c0 .49 0 1.06-.07 1.66a2.9 2.9 0 0 1-.54.14 4.11 4.11 0 0 1-.67.06 2.22 2.22 0 0 1-1.1-.22.86.86 0 0 1-.39-.82l.46-8.16a1.52 1.52 0 0 1 .56-.45 2.53 2.53 0 0 1 1.22-.24 2.78 2.78 0 0 1 1.33.26 1.56 1.56 0 0 1 .7.86q.14.38.31.88t.34 1l.33 1 .29.94h.08q.38-1.34.77-2.6t.7-2.1a2.58 2.58 0 0 1 .62-.22 3.69 3.69 0 0 1 .84-.09 3 3 0 0 1 1.28.23.92.92 0 0 1 .58.66q.06.32.14 1t.15 1.5q.08.83.16 1.76l.15 1.78c0 .57.09 1.09.12 1.57s.05.84.06 1.1a2.1 2.1 0 0 1-.57.23 3.32 3.32 0 0 1-.76.07 2.27 2.27 0 0 1-1-.21.88.88 0 0 1-.45-.82q-.1-1.74-.12-3.14t-.07-2.34h-.08q-.16.62-.46 1.57t-.78 2.49zm6.05-5.79a1.38 1.38 0 0 1 1.49-1.49h5.28a2 2 0 0 1 .2.46 2.08 2.08 0 0 1 .09.61 1.17 1.17 0 0 1-.26.86 1 1 0 0 1-.7.26h-3.38v1.49h3.6a1.93 1.93 0 0 1 .2.46 2 2 0 0 1 .09.6 1.2 1.2 0 0 1-.26.86.93.93 0 0 1-.69.26h-2.94v1.68h4.11a1.94 1.94 0 0 1 .2.46 2.08 2.08 0 0 1 .09.61 1.2 1.2 0 0 1-.26.87.94.94 0 0 1-.7.26h-4.67a1.38 1.38 0 0 1-1.49-1.49z" fill="#c48d5b"/></g></g></svg>